<svg width="431" height="489" xmlns="http://www.w3.org/2000/svg" xmlns:xlink="http://www.w3.org/1999/xlink" overflow="hidden"><defs><clipPath id="clip0"><rect x="542" y="166" width="431" height="489"/></clipPath><clipPath id="clip1"><rect x="653" y="166" width="306" height="489"/></clipPath><clipPath id="clip2"><rect x="653" y="166" width="306" height="489"/></clipPath><clipPath id="clip3"><rect x="653" y="166" width="306" height="489"/></clipPath><linearGradient x1="30.7519" y1="45.938" x2="30.7519" y2="77.0695" gradientUnits="userSpaceOnUse" spreadMethod="pad" id="fill4"><stop offset="0" stop-color="#D5E8D4"/><stop offset="1" stop-color="#97D077"/></linearGradient><linearGradient x1="30.7519" y1="106.682" x2="30.7519" y2="137.814" gradientUnits="userSpaceOnUse" spreadMethod="pad" id="fill5"><stop offset="0" stop-color="#FFCD28"/><stop offset="1" stop-color="#FFA500"/></linearGradient><linearGradient x1="30.7519" y1="167.427" x2="30.7519" y2="198.558" gradientUnits="userSpaceOnUse" spreadMethod="pad" id="fill6"><stop offset="0" stop-color="#FFCD28"/><stop offset="1" stop-color="#FFA500"/></linearGradient><linearGradient x1="30.7519" y1="228.171" x2="30.7519" y2="259.303" gradientUnits="userSpaceOnUse" spreadMethod="pad" id="fill7"><stop offset="0" stop-color="#FFCD28"/><stop offset="1" stop-color="#FFA500"/></linearGradient><linearGradient x1="30.7519" y1="288.916" x2="30.7519" y2="320.047" gradientUnits="userSpaceOnUse" spreadMethod="pad" id="fill8"><stop offset="0" stop-color="#D5E8D4"/><stop offset="1" stop-color="#97D077"/></linearGradient><linearGradient x1="30.7519" y1="349.66" x2="30.7519" y2="380.792" gradientUnits="userSpaceOnUse" spreadMethod="pad" id="fill9"><stop offset="0" stop-color="#FFCD28"/><stop offset="1" stop-color="#FFA500"/></linearGradient><linearGradient x1="30.7519" y1="410.404" x2="30.7519" y2="441.536" gradientUnits="userSpaceOnUse" spreadMethod="pad" id="fill10"><stop offset="0" stop-color="#D5E8D4"/><stop offset="1" stop-color="#97D077"/></linearGradient></defs><g clip-path="url(#clip0)" transform="translate(-542 -166)"><rect x="676" y="257" width="186" height="178" fill="#FFE6C9"/><g clip-path="url(#clip1)"><g clip-path="url(#clip2)"><g clip-path="url(#clip3)"><path d="M76.6898 76.6898 76.6898 102.225" stroke="#000000" stroke-width="0.759305" stroke-miterlimit="10" fill="none" transform="matrix(1 0 0 1.00157 653.38 166.38)"/><path d="M76.6898 106.212 74.0323 100.896 76.6898 102.225 79.3474 100.896Z" stroke="#000000" stroke-width="0.759305" stroke-miterlimit="10" transform="matrix(1 0 0 1.00157 653.38 166.38)"/><path d="M31.1315 46.3176 122.248 46.3176 122.248 76.6898 31.1315 76.6898Z" stroke="#82B366" stroke-width="0.759305" fill="url(#fill4)" transform="matrix(1 0 0 1.00157 653.38 166.38)"/><text font-family="Arial,Arial_MSFontService,sans-serif" font-weight="400" font-size="12" transform="matrix(0.759305 0 0 0.760498 696.28 232)">Input assembler</text><path d="M76.6898 137.434 76.6898 162.97" stroke="#000000" stroke-width="0.759305" stroke-miterlimit="10" fill="none" transform="matrix(1 0 0 1.00157 653.38 166.38)"/><path d="M76.6898 166.956 74.0323 161.641 76.6898 162.97 79.3474 161.641Z" stroke="#000000" stroke-width="0.759305" stroke-miterlimit="10" transform="matrix(1 0 0 1.00157 653.38 166.38)"/><path d="M31.1315 107.062 122.248 107.062 122.248 137.434 31.1315 137.434Z" stroke="#D79B00" stroke-width="0.759305" fill="url(#fill5)" transform="matrix(1 0 0 1.00157 653.38 166.38)"/><text font-family="Arial,Arial_MSFontService,sans-serif" font-weight="400" font-size="12" transform="matrix(0.759305 0 0 0.760498 702.355 293)">Vertex shader</text><path d="M76.6898 198.179 76.6898 223.714" stroke="#000000" stroke-width="0.759305" stroke-miterlimit="10" fill="none" transform="matrix(1 0 0 1.00157 653.38 166.38)"/><path d="M76.6898 227.7 74.0323 222.385 76.6898 223.714 79.3474 222.385Z" stroke="#000000" stroke-width="0.759305" stroke-miterlimit="10" transform="matrix(1 0 0 1.00157 653.38 166.38)"/><path d="M31.1315 167.806 122.248 167.806 122.248 198.179 31.1315 198.179Z" stroke="#D79B00" stroke-width="0.759305" fill="url(#fill6)" transform="matrix(1 0 0 1.00157 653.38 166.38)"/><text font-family="Arial,Arial_MSFontService,sans-serif" font-weight="400" font-size="12" transform="matrix(0.759305 0 0 0.760498 705.012 354)">Tessellation</text><path d="M76.6898 258.923 76.6898 284.459" stroke="#000000" stroke-width="0.759305" stroke-miterlimit="10" fill="none" transform="matrix(1 0 0 1.00157 653.38 166.38)"/><path d="M76.6898 288.445 74.0323 283.13 76.6898 284.459 79.3474 283.13Z" stroke="#000000" stroke-width="0.759305" stroke-miterlimit="10" transform="matrix(1 0 0 1.00157 653.38 166.38)"/><path d="M31.1315 228.551 122.248 228.551 122.248 258.923 31.1315 258.923Z" stroke="#D79B00" stroke-width="0.759305" fill="url(#fill7)" transform="matrix(1 0 0 1.00157 653.38 166.38)"/><text font-family="Arial,Arial_MSFontService,sans-serif" font-weight="400" font-size="12" transform="matrix(0.759305 0 0 0.760498 693.623 415)">Geometry shader</text><path d="M76.6898 319.668 76.6898 345.203" stroke="#000000" stroke-width="0.759305" stroke-miterlimit="10" fill="none" transform="matrix(1 0 0 1.00157 653.38 166.38)"/><path d="M76.6898 349.189 74.0323 343.874 76.6898 345.203 79.3474 343.874Z" stroke="#000000" stroke-width="0.759305" stroke-miterlimit="10" transform="matrix(1 0 0 1.00157 653.38 166.38)"/><path d="M31.1315 289.295 122.248 289.295 122.248 319.668 31.1315 319.668Z" stroke="#82B366" stroke-width="0.759305" fill="url(#fill8)" transform="matrix(1 0 0 1.00157 653.38 166.38)"/><text font-family="Arial,Arial_MSFontService,sans-serif" font-weight="400" font-size="12" transform="matrix(0.759305 0 0 0.760498 702.355 476)">Rasterization</text><path d="M76.948 380.412 76.948 395.758 76.948 405.947" stroke="#000000" stroke-width="0.759305" stroke-miterlimit="10" fill="none" transform="matrix(1 0 0 1.00157 653.38 166.38)"/><path d="M76.948 409.934 74.2904 404.619 76.948 405.947 79.6056 404.619Z" stroke="#000000" stroke-width="0.759305" stroke-miterlimit="10" transform="matrix(1 0 0 1.00157 653.38 166.38)"/><path d="M31.1315 350.04 122.248 350.04 122.248 380.412 31.1315 380.412Z" stroke="#D79B00" stroke-width="0.759305" fill="url(#fill9)" transform="matrix(1 0 0 1.00157 653.38 166.38)"/><text font-family="Arial,Arial_MSFontService,sans-serif" font-weight="400" font-size="12" transform="matrix(0.759305 0 0 0.760498 694.382 536)">Fragment shader</text><path d="M76.948 441.316 76.948 466.851" stroke="#000000" stroke-width="0.759305" stroke-miterlimit="10" fill="none" transform="matrix(1 0 0 1.00157 653.38 166.38)"/><path d="M76.948 470.838 74.2904 465.522 76.948 466.851 79.6056 465.522Z" stroke="#000000" stroke-width="0.759305" stroke-miterlimit="10" transform="matrix(1 0 0 1.00157 653.38 166.38)"/><path d="M31.1315 410.784 122.248 410.784 122.248 441.156 31.1315 441.156Z" stroke="#82B366" stroke-width="0.759305" fill="url(#fill10)" transform="matrix(1 0 0 1.00157 653.38 166.38)"/><text font-family="Arial,Arial_MSFontService,sans-serif" font-weight="400" font-size="12" transform="matrix(0.759305 0 0 0.760498 699.697 597)">Color blending</text><path d="M76.948 16.1049 76.948 41.6403" stroke="#000000" stroke-width="0.759305" stroke-miterlimit="10" fill="none" transform="matrix(1 0 0 1.00157 653.38 166.38)"/><path d="M76.948 45.6267 74.2904 40.3115 76.948 41.6403 79.6056 40.3115Z" stroke="#000000" stroke-width="0.759305" stroke-miterlimit="10" transform="matrix(1 0 0 1.00157 653.38 166.38)"/><text font-family="Arial,Arial_MSFontService,sans-serif" font-weight="400" font-size="12" transform="matrix(0.759305 0 0 0.760498 693.243 179)">Vertex<tspan font-size="12" x="32" y="0">/</tspan><tspan font-size="12" x="35" y="0">index buffer</tspan><tspan font-size="12" x="15.5" y="619.331">Framebuffer</tspan></text><path d="M152.536 35.3915 203.812 35.3915 203.812 86.6668 152.536 86.6668Z" stroke="#000000" stroke-width="0.602225" fill="#FFFFFF" transform="matrix(1 0 0 1.00157 653 166)"/><path d="M168.534 71.0791C168.534 71.7588 167.983 72.3097 167.304 72.3097 166.624 72.3097 166.073 71.7588 166.073 71.0791 166.073 70.3995 166.624 69.8485 167.304 69.8485 167.983 69.8485 168.534 70.3995 168.534 71.0791Z" transform="matrix(1 0 0 1.00157 653 166)"/><path d="M192.724 70.8264C192.724 71.506 192.173 72.057 191.493 72.057 190.814 72.057 190.263 71.506 190.263 70.8264 190.263 70.1467 190.814 69.5958 191.493 69.5958 192.173 69.5958 192.724 70.1467 192.724 70.8264Z" transform="matrix(1 0 0 1.00157 653 166)"/><path d="M180.635 51.5945C180.635 52.2742 180.084 52.8251 179.405 52.8251 178.725 52.8251 178.174 52.2742 178.174 51.5945 178.174 50.9149 178.725 50.3639 179.405 50.3639 180.084 50.3639 180.635 50.9149 180.635 51.5945Z" transform="matrix(1 0 0 1.00157 653 166)"/><path d="M179.422 51.643 167.385 71.1493" stroke="#000000" stroke-width="0.602225" fill="none" fill-rule="evenodd" transform="matrix(1 0 0 1.00157 653 166)"/><path d="M167.385 71.1493 191.605 70.8593" stroke="#000000" stroke-width="0.602225" fill="none" fill-rule="evenodd" transform="matrix(1 0 0 1.00157 653 166)"/><path d="M179.495 51.643 191.532 70.9318" stroke="#000000" stroke-width="0.602225" fill="none" fill-rule="evenodd" transform="matrix(1 0 0 1.00157 653 166)"/><text font-family="Arial,Arial_MSFontService,sans-serif" font-weight="400" font-size="10" transform="matrix(0.759305 0 0 0.760498 829.957 214)">0<tspan font-size="10" x="-17.3811" y="40.7628">1</tspan><tspan font-size="10" x="18.1452" y="40.7628">2</tspan></text><path d="M152.155 95.237 203.43 95.237 203.43 146.512 152.155 146.512Z" stroke="#000000" stroke-width="0.602225" fill="#FFFFFF" transform="matrix(1 0 0 1.00157 653 166)"/><path d="M165.501 124.89C165.501 125.57 164.95 126.121 164.271 126.121 163.591 126.121 163.04 125.57 163.04 124.89 163.04 124.211 163.591 123.66 164.271 123.66 164.95 123.66 165.501 124.211 165.501 124.89Z" transform="matrix(1 0 0 1.00157 653 166)"/><path d="M187.222 132.226C187.222 132.906 186.671 133.457 185.991 133.457 185.312 133.457 184.761 132.906 184.761 132.226 184.761 131.546 185.312 130.995 185.991 130.995 186.671 130.995 187.222 131.546 187.222 132.226Z" transform="matrix(1 0 0 1.00157 653 166)"/><path d="M186.105 111.44C186.105 112.12 185.554 112.671 184.874 112.671 184.195 112.671 183.644 112.12 183.644 111.44 183.644 110.76 184.195 110.209 184.874 110.209 185.554 110.209 186.105 110.76 186.105 111.44Z" transform="matrix(1 0 0 1.00157 653 166)"/><text font-family="Arial,Arial_MSFontService,sans-serif" font-weight="400" font-size="10" transform="matrix(0.759305 0 0 0.760498 833.415 274)">0<tspan font-size="10" x="-25.9302" y="32.8732">1</tspan><tspan font-size="10" x="9.83678" y="39.4479">2</tspan></text><path d="M164.297 124.897 184.868 111.457" stroke="#000000" stroke-width="0.759305" fill="none" fill-rule="evenodd" transform="matrix(1 0 0 1.00157 653 166)"/><path d="M185.965 132.303 184.868 111.457" stroke="#000000" stroke-width="0.759305" fill="none" fill-rule="evenodd" transform="matrix(1 0 0 1.00157 653 166)"/><path d="M164.297 124.989 186.056 132.303" stroke="#000000" stroke-width="0.759305" fill="none" fill-rule="evenodd" transform="matrix(1 0 0 1.00157 653 166)"/><path d="M152.093 155.898 203.369 155.898 203.369 207.173 152.093 207.173Z" stroke="#000000" stroke-width="0.602225" fill="#FFFFFF" transform="matrix(1 0 0 1.00157 653 166)"/><path d="M165.44 185.552C165.44 186.231 164.889 186.782 164.209 186.782 163.53 186.782 162.979 186.231 162.979 185.552 162.979 184.872 163.53 184.321 164.209 184.321 164.889 184.321 165.44 184.872 165.44 185.552Z" transform="matrix(1 0 0 1.00157 653 166)"/><path d="M187.161 192.887C187.161 193.567 186.61 194.118 185.93 194.118 185.251 194.118 184.7 193.567 184.7 192.887 184.7 192.208 185.251 191.657 185.93 191.657 186.61 191.657 187.161 192.208 187.161 192.887Z" transform="matrix(1 0 0 1.00157 653 166)"/><path d="M186.044 172.101C186.044 172.781 185.493 173.332 184.813 173.332 184.133 173.332 183.582 172.781 183.582 172.101 183.582 171.422 184.133 170.871 184.813 170.871 185.493 170.871 186.044 171.422 186.044 172.101Z" transform="matrix(1 0 0 1.00157 653 166)"/><text font-family="Arial,Arial_MSFontService,sans-serif" font-weight="400" font-size="10" transform="matrix(0.759305 0 0 0.760498 833.811 336)">0<tspan font-size="10" x="-26.5323" y="31.5583">1</tspan><tspan font-size="10" x="9.23471" y="38.1329">2</tspan></text><path d="M164.235 185.559 184.807 172.119" stroke="#000000" stroke-width="0.759305" fill="none" fill-rule="evenodd" transform="matrix(1 0 0 1.00157 653 166)"/><path d="M185.904 192.964 184.807 172.119" stroke="#000000" stroke-width="0.759305" fill="none" fill-rule="evenodd" transform="matrix(1 0 0 1.00157 653 166)"/><path d="M164.235 185.65 185.995 192.964" stroke="#000000" stroke-width="0.759305" fill="none" fill-rule="evenodd" transform="matrix(1 0 0 1.00157 653 166)"/><path d="M174.974 178.691 185.641 192.623" stroke="#000000" stroke-width="0.379653" transform="matrix(1 0 0 1.00157 653 166)"/><path d="M185.447 183.12 164.339 185.835" stroke="#000000" stroke-width="0.379653" transform="matrix(1 0 0 1.00157 653 166)"/><path d="M184.445 172.679 176.105 189.682" stroke="#000000" stroke-width="0.379653" transform="matrix(1 0 0 1.00157 653 166)"/><path d="M152.019 218.996 203.295 218.996 203.295 270.271 152.019 270.271Z" stroke="#000000" stroke-width="0.602225" fill="#FFFFFF" transform="matrix(1 0 0 1.00157 653 166)"/><path d="M165.366 248.65C165.366 249.329 164.815 249.88 164.135 249.88 163.456 249.88 162.905 249.329 162.905 248.65 162.905 247.97 163.456 247.419 164.135 247.419 164.815 247.419 165.366 247.97 165.366 248.65Z" transform="matrix(1 0 0 1.00157 653 166)"/><path d="M187.087 255.985C187.087 256.665 186.536 257.216 185.856 257.216 185.176 257.216 184.625 256.665 184.625 255.985 184.625 255.306 185.176 254.755 185.856 254.755 186.536 254.755 187.087 255.306 187.087 255.985Z" transform="matrix(1 0 0 1.00157 653 166)"/><path d="M185.97 235.199C185.97 235.879 185.419 236.43 184.739 236.43 184.059 236.43 183.508 235.879 183.508 235.199 183.508 234.52 184.059 233.969 184.739 233.969 185.419 233.969 185.97 234.52 185.97 235.199Z" transform="matrix(1 0 0 1.00157 653 166)"/><text font-family="Arial,Arial_MSFontService,sans-serif" font-weight="400" font-size="10" transform="matrix(0.759305 0 0 0.760498 833.991 399)">0<tspan font-size="10" x="-26.8669" y="31.5583">1</tspan><tspan font-size="10" x="8.90024" y="38.1329">2</tspan></text><path d="M164.161 248.657 184.733 235.217" stroke="#000000" stroke-width="0.759305" fill="none" fill-rule="evenodd" transform="matrix(1 0 0 1.00157 653 166)"/><path d="M185.83 256.062 184.733 235.217" stroke="#000000" stroke-width="0.759305" fill="none" fill-rule="evenodd" transform="matrix(1 0 0 1.00157 653 166)"/><path d="M164.161 248.748 185.921 256.062" stroke="#000000" stroke-width="0.759305" fill="none" fill-rule="evenodd" transform="matrix(1 0 0 1.00157 653 166)"/><path d="M174.9 241.789 185.567 255.721" stroke="#000000" stroke-width="0.379653" transform="matrix(1 0 0 1.00157 653 166)"/><path d="M185.373 246.218 164.265 248.933" stroke="#000000" stroke-width="0.379653" transform="matrix(1 0 0 1.00157 653 166)"/><path d="M184.371 235.777 176.031 252.78" stroke="#000000" stroke-width="0.379653" transform="matrix(1 0 0 1.00157 653 166)"/><path d="M185.932 256.077 198.539 237.393" stroke="#000000" stroke-width="0.759305" transform="matrix(1 0 0 1.00157 653 166)"/><path d="M184.768 235.13 198.474 237.458" stroke="#000000" stroke-width="0.759305" transform="matrix(1 0 0 1.00157 653 166)"/><path d="M199.769 237.522C199.769 238.202 199.218 238.753 198.539 238.753 197.859 238.753 197.308 238.202 197.308 237.522 197.308 236.843 197.859 236.292 198.539 236.292 199.218 236.292 199.769 236.843 199.769 237.522Z" transform="matrix(1 0 0 1.00157 653 166)"/><text font-family="Arial,Arial_MSFontService,sans-serif" font-weight="400" font-size="10" transform="matrix(0.759305 0 0 0.760498 849.858 401)">3</text><path d="M151.733 277.911 203.008 277.911 203.008 329.186 151.733 329.186Z" stroke="#000000" stroke-width="0.602225" fill="#FFFFFF" transform="matrix(1 0 0 1.00157 653 166)"/><path d="M184.085 294.691 175.745 311.694" stroke="#000000" stroke-width="0.379653" transform="matrix(1 0 0 1.00157 653 166)"/><path d="M155.921 278.085 155.921 329.011" stroke="#000000" stroke-width="0.759305" fill="none" transform="matrix(1 0 0 1.00157 653 166)"/><path d="M160.021 278.111 160.021 329.037" stroke="#000000" stroke-width="0.759305" fill="none" transform="matrix(1 0 0 1.00157 653 166)"/><path d="M164.479 278.177 164.479 329.102" stroke="#000000" stroke-width="0.759305" fill="none" transform="matrix(1 0 0 1.00157 653 166)"/><path d="M168.777 277.994 168.777 328.92" stroke="#000000" stroke-width="0.759305" fill="none" transform="matrix(1 0 0 1.00157 653 166)"/><path d="M173.577 278.085 173.577 329.011" stroke="#000000" stroke-width="0.759305" fill="none" transform="matrix(1 0 0 1.00157 653 166)"/><path d="M178.102 278.085 178.102 329.011" stroke="#000000" stroke-width="0.759305" fill="none" transform="matrix(1 0 0 1.00157 653 166)"/><path d="M182.834 278.04 182.834 328.965" stroke="#000000" stroke-width="0.759305" fill="none" transform="matrix(1 0 0 1.00157 653 166)"/><path d="M187.634 278.04 187.634 328.965" stroke="#000000" stroke-width="0.759305" fill="none" transform="matrix(1 0 0 1.00157 653 166)"/><path d="M192.571 277.948 192.571 328.874" stroke="#000000" stroke-width="0.759305" fill="none" transform="matrix(1 0 0 1.00157 653 166)"/><path d="M198.056 277.948 198.056 328.874" stroke="#000000" stroke-width="0.759305" fill="none" transform="matrix(1 0 0 1.00157 653 166)"/><path d="M202.811 282.252 151.885 282.252" stroke="#000000" stroke-width="0.759305" fill="none" transform="matrix(1 0 0 1.00157 653 166)"/><path d="M202.785 286.352 151.86 286.352" stroke="#000000" stroke-width="0.759305" fill="none" transform="matrix(1 0 0 1.00157 653 166)"/><path d="M202.719 290.81 151.794 290.81" stroke="#000000" stroke-width="0.759305" fill="none" transform="matrix(1 0 0 1.00157 653 166)"/><path d="M202.902 295.108 151.977 295.108" stroke="#000000" stroke-width="0.759305" fill="none" transform="matrix(1 0 0 1.00157 653 166)"/><path d="M202.811 299.908 151.885 299.908" stroke="#000000" stroke-width="0.759305" fill="none" transform="matrix(1 0 0 1.00157 653 166)"/><path d="M202.811 304.433 151.885 304.433" stroke="#000000" stroke-width="0.759305" fill="none" transform="matrix(1 0 0 1.00157 653 166)"/><path d="M202.856 309.165 151.931 309.165" stroke="#000000" stroke-width="0.759305" fill="none" transform="matrix(1 0 0 1.00157 653 166)"/><path d="M202.856 313.965 151.931 313.965" stroke="#000000" stroke-width="0.759305" fill="none" transform="matrix(1 0 0 1.00157 653 166)"/><path d="M202.948 318.902 152.022 318.902" stroke="#000000" stroke-width="0.759305" fill="none" transform="matrix(1 0 0 1.00157 653 166)"/><path d="M202.948 324.387 152.022 324.387" stroke="#000000" stroke-width="0.759305" fill="none" transform="matrix(1 0 0 1.00157 653 166)"/><path d="M164.479 304.6 168.731 304.6 168.731 308.988 164.479 308.988Z" stroke="#000000" stroke-width="0.759305" transform="matrix(1 0 0 1.00157 653 166)"/><path d="M168.822 309.171 173.394 309.171 173.394 313.88 168.822 313.88Z" stroke="#000000" stroke-width="0.759305" transform="matrix(1 0 0 1.00157 653 166)"/><path d="M173.348 309.354 177.965 309.354 177.965 313.834 173.348 313.834Z" stroke="#000000" stroke-width="0.759305" transform="matrix(1 0 0 1.00157 653 166)"/><path d="M178.239 309.171 182.262 309.171 182.262 313.834 178.239 313.834Z" stroke="#000000" stroke-width="0.759305" transform="matrix(1 0 0 1.00157 653 166)"/><path d="M182.856 309.262 187.382 309.262 187.382 313.925 182.856 313.925Z" stroke="#000000" stroke-width="0.759305" transform="matrix(1 0 0 1.00157 653 166)"/><path d="M187.611 304.6 192.548 304.6 192.548 308.988 187.611 308.988Z" stroke="#000000" stroke-width="0.759305" transform="matrix(1 0 0 1.00157 653 166)"/><path d="M192.639 299.8 197.896 299.8 197.896 304.188 192.639 304.188Z" stroke="#000000" stroke-width="0.759305" transform="matrix(1 0 0 1.00157 653 166)"/><path d="M192.594 295.274 197.942 295.274 197.942 299.434 192.594 299.434Z" stroke="#000000" stroke-width="0.759305" transform="matrix(1 0 0 1.00157 653 166)"/><path d="M187.611 295.228 192.548 295.228 192.548 299.845 187.611 299.845Z" stroke="#000000" stroke-width="0.759305" transform="matrix(1 0 0 1.00157 653 166)"/><path d="M187.519 300.257 192.594 300.257 192.594 304.691 187.519 304.691Z" stroke="#000000" stroke-width="0.759305" transform="matrix(1 0 0 1.00157 653 166)"/><path d="M182.811 295.091 187.474 295.091 187.474 299.525 182.811 299.525Z" stroke="#000000" stroke-width="0.759305" transform="matrix(1 0 0 1.00157 653 166)"/><path d="M182.811 300.028 187.656 300.028 187.656 304.371 182.811 304.371Z" stroke="#000000" stroke-width="0.759305" transform="matrix(1 0 0 1.00157 653 166)"/><path d="M182.811 304.508 187.519 304.508 187.519 309.217 182.811 309.217Z" stroke="#000000" stroke-width="0.759305" transform="matrix(1 0 0 1.00157 653 166)"/><path d="M178.057 304.554 182.902 304.554 182.902 309.08 178.057 309.08Z" stroke="#000000" stroke-width="0.759305" transform="matrix(1 0 0 1.00157 653 166)"/><path d="M173.531 304.6 177.737 304.6 177.737 308.805 173.531 308.805Z" stroke="#000000" stroke-width="0.759305" transform="matrix(1 0 0 1.00157 653 166)"/><path d="M168.868 304.508 173.577 304.508 173.577 309.217 168.868 309.217Z" stroke="#000000" stroke-width="0.759305" transform="matrix(1 0 0 1.00157 653 166)"/><path d="M173.577 299.891 177.828 299.891 177.828 304.508 173.577 304.508Z" stroke="#000000" stroke-width="0.759305" transform="matrix(1 0 0 1.00157 653 166)"/><path d="M177.828 300.028 182.582 300.028 182.582 304.234 177.828 304.234Z" stroke="#000000" stroke-width="0.759305" transform="matrix(1 0 0 1.00157 653 166)"/><path d="M178.239 295.228 182.811 295.228 182.811 300.257 178.239 300.257Z" stroke="#000000" stroke-width="0.759305" transform="matrix(1 0 0 1.00157 653 166)"/><path d="M168.777 299.937 173.119 299.937 173.119 304.143 168.777 304.143Z" stroke="#000000" stroke-width="0.759305" transform="matrix(1 0 0 1.00157 653 166)"/><path d="M151.151 398.629 202.612 398.629 202.612 450.09 151.151 450.09Z" transform="matrix(1 0 0 1.00157 653 166)"/><path d="M164.705 363.666 168.957 363.666 168.957 368.055 164.705 368.055Z" fill="#FF2A2A" transform="matrix(1 0 0 1.00157 653 166)"/><path d="M169.048 368.237 173.62 368.237 173.62 372.946 169.048 372.946Z" fill="#FF0000" transform="matrix(1 0 0 1.00157 653 166)"/><path d="M173.574 368.42 178.191 368.42 178.191 372.9 173.574 372.9Z" fill="#D40000" transform="matrix(1 0 0 1.00157 653 166)"/><path d="M178.283 368.237 182.488 368.237 182.488 372.9 178.283 372.9Z" fill="#AA0000" transform="matrix(1 0 0 1.00157 653 166)"/><path d="M183.083 368.329 187.608 368.329 187.608 372.992 183.083 372.992Z" fill="#800000" transform="matrix(1 0 0 1.00157 653 166)"/><path d="M187.837 363.666 192.774 363.666 192.774 368.055 187.837 368.055Z" fill="#550000" transform="matrix(1 0 0 1.00157 653 166)"/><path d="M192.865 358.866 198.122 358.866 198.122 363.255 192.865 363.255Z" fill="#2B0000" transform="matrix(1 0 0 1.00157 653 166)"/><path d="M192.82 354.34 198.168 354.34 198.168 358.5 192.82 358.5Z" fill="#2B0000" transform="matrix(1 0 0 1.00157 653 166)"/><path d="M187.837 354.295 192.774 354.295 192.774 358.912 187.837 358.912Z" fill="#550000" transform="matrix(1 0 0 1.00157 653 166)"/><path d="M187.745 358.957 192.82 358.957 192.82 363.757 187.745 363.757Z" fill="#550000" transform="matrix(1 0 0 1.00157 653 166)"/><path d="M183.037 354.158 187.7 354.158 187.7 358.592 183.037 358.592Z" fill="#800000" transform="matrix(1 0 0 1.00157 653 166)"/><path d="M183.037 359.095 187.883 359.095 187.883 363.437 183.037 363.437Z" fill="#800000" transform="matrix(1 0 0 1.00157 653 166)"/><path d="M183.037 363.575 187.745 363.575 187.745 368.283 183.037 368.283Z" fill="#800000" transform="matrix(1 0 0 1.00157 653 166)"/><path d="M178.283 363.62 183.128 363.62 183.128 368.146 178.283 368.146Z" fill="#AA0000" transform="matrix(1 0 0 1.00157 653 166)"/><path d="M173.757 363.666 177.963 363.666 177.963 367.872 173.757 367.872Z" fill="#D40000" transform="matrix(1 0 0 1.00157 653 166)"/><path d="M169.094 363.575 173.803 363.575 173.803 368.283 169.094 368.283Z" fill="#FF0000" transform="matrix(1 0 0 1.00157 653 166)"/><path d="M173.803 358.957 178.054 358.957 178.054 363.575 173.803 363.575Z" fill="#D40000" transform="matrix(1 0 0 1.00157 653 166)"/><path d="M178.054 359.095 182.808 359.095 182.808 363.3 178.054 363.3Z" fill="#AA0000" transform="matrix(1 0 0 1.00157 653 166)"/><path d="M178.191 354.295 183.037 354.295 183.037 359.323 178.191 359.323Z" fill="#AA0000" transform="matrix(1 0 0 1.00157 653 166)"/><path d="M169.003 359.003 173.345 359.003 173.345 363.209 169.003 363.209Z" fill="#FF0000" transform="matrix(1 0 0 1.00157 653 166)"/><path d="M203.982 339.171 255.257 339.171 255.257 390.447 203.982 390.447Z" stroke="#000000" stroke-width="0.602225" fill="none" transform="matrix(1 0 0 1.00157 600.703 163.711)"/><path d="M208.17 339.346 208.17 390.272" stroke="#000000" stroke-width="0.759305" fill="none" transform="matrix(1 0 0 1.00157 600.703 163.711)"/><path d="M212.269 339.372 212.269 390.297" stroke="#000000" stroke-width="0.759305" fill="none" transform="matrix(1 0 0 1.00157 600.703 163.711)"/><path d="M216.728 339.438 216.728 390.363" stroke="#000000" stroke-width="0.759305" fill="none" transform="matrix(1 0 0 1.00157 600.703 163.711)"/><path d="M221.025 339.255 221.025 390.18" stroke="#000000" stroke-width="0.759305" fill="none" transform="matrix(1 0 0 1.00157 600.703 163.711)"/><path d="M225.825 339.346 225.825 390.272" stroke="#000000" stroke-width="0.759305" fill="none" transform="matrix(1 0 0 1.00157 600.703 163.711)"/><path d="M230.351 339.346 230.351 390.272" stroke="#000000" stroke-width="0.759305" fill="none" transform="matrix(1 0 0 1.00157 600.703 163.711)"/><path d="M235.082 339.3 235.082 390.226" stroke="#000000" stroke-width="0.759305" fill="none" transform="matrix(1 0 0 1.00157 600.703 163.711)"/><path d="M239.882 339.3 239.882 390.226" stroke="#000000" stroke-width="0.759305" fill="none" transform="matrix(1 0 0 1.00157 600.703 163.711)"/><path d="M244.819 339.209 244.819 390.135" stroke="#000000" stroke-width="0.759305" fill="none" transform="matrix(1 0 0 1.00157 600.703 163.711)"/><path d="M250.305 339.209 250.305 390.135" stroke="#000000" stroke-width="0.759305" fill="none" transform="matrix(1 0 0 1.00157 600.703 163.711)"/><path d="M255.059 343.513 204.134 343.513" stroke="#000000" stroke-width="0.759305" fill="none" transform="matrix(1 0 0 1.00157 600.703 163.711)"/><path d="M255.034 347.612 204.108 347.612" stroke="#000000" stroke-width="0.759305" fill="none" transform="matrix(1 0 0 1.00157 600.703 163.711)"/><path d="M254.968 352.071 204.042 352.071" stroke="#000000" stroke-width="0.759305" fill="none" transform="matrix(1 0 0 1.00157 600.703 163.711)"/><path d="M255.151 356.368 204.225 356.368" stroke="#000000" stroke-width="0.759305" fill="none" transform="matrix(1 0 0 1.00157 600.703 163.711)"/><path d="M255.059 361.168 204.134 361.168" stroke="#000000" stroke-width="0.759305" fill="none" transform="matrix(1 0 0 1.00157 600.703 163.711)"/><path d="M255.059 365.694 204.134 365.694" stroke="#000000" stroke-width="0.759305" fill="none" transform="matrix(1 0 0 1.00157 600.703 163.711)"/><path d="M255.105 370.425 204.18 370.425" stroke="#000000" stroke-width="0.759305" fill="none" transform="matrix(1 0 0 1.00157 600.703 163.711)"/><path d="M255.105 375.225 204.18 375.225" stroke="#000000" stroke-width="0.759305" fill="none" transform="matrix(1 0 0 1.00157 600.703 163.711)"/><path d="M255.197 380.162 204.271 380.162" stroke="#000000" stroke-width="0.759305" fill="none" transform="matrix(1 0 0 1.00157 600.703 163.711)"/><path d="M255.197 385.648 204.271 385.648" stroke="#000000" stroke-width="0.759305" fill="none" transform="matrix(1 0 0 1.00157 600.703 163.711)"/><path d="M164.388 425.57 168.769 425.57 168.769 430.185 164.388 430.185Z" fill="#FF2A2A" transform="matrix(1 0 0 1.00157 653 166)"/><path d="M168.699 430.109 173.464 430.109 173.464 434.931 168.699 434.931Z" fill="#FF0000" transform="matrix(1 0 0 1.00157 653 166)"/><path d="M173.45 430.405 177.874 430.405 177.874 434.885 173.45 434.885Z" fill="#D40000" transform="matrix(1 0 0 1.00157 653 166)"/><path d="M177.822 430.222 182.769 430.222 182.769 434.885 177.822 434.885Z" fill="#AA0000" transform="matrix(1 0 0 1.00157 653 166)"/><path d="M182.765 430.313 187.501 430.313 187.501 434.896 182.765 434.896Z" fill="#800000" transform="matrix(1 0 0 1.00157 653 166)"/><path d="M187.519 425.651 192.456 425.651 192.456 430.039 187.519 430.039Z" fill="#550000" transform="matrix(1 0 0 1.00157 653 166)"/><path d="M192.451 420.851 197.805 420.851 197.805 425.239 192.451 425.239Z" fill="#2B0000" transform="matrix(1 0 0 1.00157 653 166)"/><path d="M192.486 416.325 197.851 416.325 197.851 420.873 192.486 420.873Z" fill="#2B0000" transform="matrix(1 0 0 1.00157 653 166)"/><path d="M187.519 416.279 192.456 416.279 192.456 421.026 187.519 421.026Z" fill="#550000" transform="matrix(1 0 0 1.00157 653 166)"/><path d="M187.428 420.942 192.502 420.942 192.502 425.742 187.428 425.742Z" fill="#550000" transform="matrix(1 0 0 1.00157 653 166)"/><path d="M182.719 416.255 187.528 416.255 187.528 420.9 182.719 420.9Z" fill="#800000" transform="matrix(1 0 0 1.00157 653 166)"/><path d="M182.719 420.869 187.565 420.869 187.565 425.616 182.719 425.616Z" fill="#800000" transform="matrix(1 0 0 1.00157 653 166)"/><path d="M182.719 425.559 187.541 425.559 187.541 430.332 182.719 430.332Z" fill="#800000" transform="matrix(1 0 0 1.00157 653 166)"/><path d="M177.82 425.605 182.746 425.605 182.746 430.244 177.82 430.244Z" fill="#AA0000" transform="matrix(1 0 0 1.00157 653 166)"/><path d="M173.439 425.651 177.855 425.651 177.855 430.422 173.439 430.422Z" fill="#D40000" transform="matrix(1 0 0 1.00157 653 166)"/><path d="M168.744 425.559 173.485 425.559 173.485 430.268 168.744 430.268Z" fill="#FF0000" transform="matrix(1 0 0 1.00157 653 166)"/><path d="M173.485 420.942 177.85 420.942 177.85 425.672 173.485 425.672Z" fill="#D40000" transform="matrix(1 0 0 1.00157 653 166)"/><path d="M177.85 420.934 182.733 420.934 182.733 425.624 177.85 425.624Z" fill="#AA0000" transform="matrix(1 0 0 1.00157 653 166)"/><path d="M177.874 416.279 182.719 416.279 182.719 420.936 177.874 420.936Z" fill="#AA0000" transform="matrix(1 0 0 1.00157 653 166)"/><path d="M168.685 420.988 173.48 420.988 173.48 425.598 168.685 425.598Z" fill="#FF0000" transform="matrix(1 0 0 1.00157 653 166)"/></g></g></g><path d="M868.5 263.5C873.471 263.5 877.5 264.172 877.5 265L877.5 302.301C877.5 303.13 881.53 303.801 886.5 303.801 881.53 303.801 877.5 304.473 877.5 305.301L877.5 434C877.5 434.829 873.471 435.5 868.5 435.5" stroke="#000000" stroke-width="0.666667" stroke-miterlimit="8" fill="none" fill-rule="evenodd"/><text font-family="DengXian,DengXian_MSFontService,sans-serif" font-weight="400" font-size="13" transform="translate(895.122 304)">Vertex <tspan font-size="13" x="0" y="16">Processing</tspan><tspan font-size="13" x="-342.792" y="-3">Transform </tspan><tspan font-size="13" x="-280.958" y="-3">FeedBack</tspan><tspan font-size="13" x="-342.792" y="13">Rendering</tspan></text><rect x="558.5" y="401.5" width="106" height="60" stroke="#000000" stroke-width="1.33333" stroke-miterlimit="8" fill="#FFFFFF"/><text font-family="DengXian,DengXian_MSFontService,sans-serif" font-weight="400" font-size="15" transform="translate(578.99 419)">Transform<tspan font-size="15" x="2.16669" y="17">Feedback</tspan><tspan font-size="15" x="13.3333" y="35">Buffer</tspan></text><path d="M5.3353e-07-0.333333 58.926-0.333239 58.926 0.333428-5.3353e-07 0.333333ZM57.5927-3.99991 65.5927 0.000104987 57.5926 4.00009Z" transform="matrix(-1 0 0 1 730.093 444.5)"/><path d="M0 0 0.000104987 81.8024" stroke="#000000" stroke-width="0.666667" stroke-miterlimit="8" fill="none" fill-rule="evenodd" transform="matrix(1 0 0 -1 611.5 401.302)"/><path d="M612.167 285.205 612.167 252.167 723.527 252.167 723.527 252.833 612.5 252.833 612.833 252.5 612.833 285.205ZM722.193 248.5 730.193 252.5 722.193 256.5Z"/><rect x="558.5" y="462.5" width="46" height="25" stroke="#000000" stroke-width="1.33333" stroke-miterlimit="8" fill="none"/><text font-family="DengXian,DengXian_MSFontService,sans-serif" font-weight="400" font-size="11" transform="translate(570.438 478)">Data</text><rect x="604.5" y="462.5" width="60" height="25" stroke="#000000" stroke-width="1.33333" stroke-miterlimit="8" fill="none"/><text font-family="DengXian,DengXian_MSFontService,sans-serif" font-weight="400" font-size="11" transform="translate(615.576 478)">Counter</text></g></svg>